<?xml version="1.0" encoding="UTF-8" standalone="no"?>
<!-- Creator: fig2dev Version 3.2 Patchlevel 5e -->

<!-- CreationDate: Sun Jun  5 11:57:37 2016 -->

<!-- Magnification: 1.050 -->

<svg
   xmlns:dc="http://purl.org/dc/elements/1.1/"
   xmlns:cc="http://creativecommons.org/ns#"
   xmlns:rdf="http://www.w3.org/1999/02/22-rdf-syntax-ns#"
   xmlns:svg="http://www.w3.org/2000/svg"
   xmlns="http://www.w3.org/2000/svg"
   xmlns:sodipodi="http://sodipodi.sourceforge.net/DTD/sodipodi-0.dtd"
   xmlns:inkscape="http://www.inkscape.org/namespaces/inkscape"
   width="381.90286"
   height="280.94724"
   viewBox="2265 2685 5110.6676 3733.4765"
   id="svg2"
   version="1.1"
   inkscape:version="0.48.5 r10040"
   sodipodi:docname="torus-vill-point.svg">
  <metadata
     id="metadata72">
    <rdf:RDF>
      <cc:Work
         rdf:about="">
        <dc:format>image/svg+xml</dc:format>
        <dc:type
           rdf:resource="http://purl.org/dc/dcmitype/StillImage" />
        <dc:title></dc:title>
      </cc:Work>
    </rdf:RDF>
  </metadata>
  <defs
     id="defs70" />
  <sodipodi:namedview
     pagecolor="#ffffff"
     bordercolor="#666666"
     borderopacity="1"
     objecttolerance="10"
     gridtolerance="10"
     guidetolerance="10"
     inkscape:pageopacity="0"
     inkscape:pageshadow="2"
     inkscape:window-width="1230"
     inkscape:window-height="590"
     id="namedview68"
     showgrid="false"
     units="mm"
     fit-margin-top="2"
     fit-margin-left="2"
     fit-margin-right="2"
     fit-margin-bottom="2"
     inkscape:zoom="1.3703641"
     inkscape:cx="190.95143"
     inkscape:cy="140.47362"
     inkscape:window-x="0"
     inkscape:window-y="0"
     inkscape:window-maximized="0"
     inkscape:current-layer="svg2" />
  <g
     style="fill:none;stroke-width:0.025in"
     id="g4"
     transform="translate(85.833877,72.248462)">
    <!-- Line -->
    <!--  polyline  -->
    <polyline
       points="3788,4910 3822,4929 3855,4949 3892,4962 3926,4976 3964,4991 4002,5009 4044,5018 4081,5034 4124,5047 4166,5056 4209,5070 4257,5080 4300,5089 4347,5095 4393,5103 4436,5108 4483,5113 4531,5118 4578,5122 4625,5127 4677,5127 4725,5127 4771,5127 4818,5127 4866,5122 4914,5122 4960,5118 5007,5113 5055,5103 5103,5099 5145,5089 5191,5080 5234,5070 5281,5061 5324,5051 5366,5037 5404,5028 5447,5014 5485,4999 5523,4985 5561,4966 5598,4952 5632,4938 5665,4919 5697,4900 5725,4886 5759,4867 5787,4848 5811,4829 5835,4811 5859,4792 5882,4773 5901,4754 5920,4735 5939,4717 5958,4702 5971,4683 5986,4664 5995,4650 6005,4632 6013,4617 6024,4603 6029,4588 6037,4574 6043,4560 6048,4551 6048,4537 6052,4528 6052,4513 6056,4503 6056,4494 6056,4480 6056,4470 6056,4461 6056,4451 6052,4437 6052,4428 6048,4418 6043,4404 6037,4390 6033,4376 6029,4362 6018,4348 6010,4333 5999,4319 5991,4300 5976,4286 5963,4267 5948,4248 5928,4229 5910,4215 5891,4196 5872,4177 5848,4159 5825,4140 5797,4121 5769,4102 5739,4083 5712,4065 5678,4050 5646,4031 5612,4012 5574,3998 5542,3984 5504,3970 5465,3951 5423,3941 5385,3927 5343,3913 5300,3903 5258,3889 5211,3880 5169,3870 5122,3866 5074,3856 5032,3851 4984,3847 4937,3842 4890,3837 4843,3834 4791,3834 4744,3834 4696,3834 4648,3834 4601,3837 4555,3837 4507,3842 4459,3847 4412,3856 4366,3861 4323,3870 4276,3880 4233,3889 4185,3899 4143,3908 4100,3922 4062,3932 4020,3946 3983,3960 3945,3974 3907,3993 3869,4007 3837,4023 3802,4040 3770,4059 3741,4073 3709,4092 3680,4111 3656,4130 3633,4149 3610,4169 3586,4187 3567,4206 3548,4225 3529,4244 3510,4258 3496,4277 3482,4297 3472,4310 3463,4329 3454,4343 3443,4358 3440,4371 3429,4385 3425,4399 3421,4409 3421,4423 3416,4433 3416,4447 3411,4456 3411,4466 3411,4480 3411,4489 3411,4499 3411,4508 3416,4522 3416,4532 3421,4541 3425,4555 3429,4571 3435,4584 3440,4598 3448,4613 3459,4626 3467,4640 3477,4659 3491,4674 3506,4692 3520,4711 3539,4730 3558,4744 3576,4763 3595,4782 3618,4802 3643,4820 3671,4839 3699,4858 3728,4877 3756,4896 3788,4910 "
       style="stroke:#000000;stroke-width:8;stroke-linecap:butt;stroke-linejoin:round"
       id="polyline6" />
    <!-- Line -->
    <!--  polyline  -->
    <polyline
       points="3251,5911 3307,5940 3369,5968 3429,5996 3491,6025 3558,6048 3618,6072 3685,6096 3752,6119 3818,6138 3884,6157 3949,6171 4020,6185 4087,6199 4158,6214 4223,6223 4295,6234 4366,6242 4436,6247 4507,6256 4578,6256 4648,6261 4720,6261 4791,6261 4861,6261 4933,6256 5002,6251 5069,6247 5141,6237 5211,6228 5281,6218 5348,6204 5419,6195 5485,6181 5555,6162 5622,6143 5688,6124 5755,6106 5821,6086 5882,6062 5948,6034 6010,6010 6071,5982 6133,5954 6194,5925 6250,5892 6307,5859 6364,5822 6420,5788 6473,5751 6524,5713 6577,5670 6628,5628 6676,5585 6723,5539 6770,5491 6812,5444 6854,5396 6893,5344 6931,5292 6963,5236 7001,5180 7029,5122 7059,5066 7086,5004 7109,4943 7128,4881 7148,4820 7163,4754 7171,4692 7181,4626 7186,4560 7191,4494 7191,4428 7186,4362 7176,4297 7167,4234 7152,4169 7139,4107 7120,4040 7096,3980 7072,3922 7043,3861 7016,3804 6982,3749 6944,3691 6912,3639 6870,3587 6832,3535 6789,3488 6742,3440 6699,3393 6647,3351 6600,3308 6548,3266 6496,3228 6444,3190 6388,3152 6330,3116 6274,3081 6218,3048 6160,3020 6098,2992 6037,2963 5976,2935 5910,2911 5848,2888 5782,2865 5717,2840 5651,2823 5585,2803 5518,2789 5447,2774 5380,2760 5311,2746 5244,2738 5173,2727 5103,2718 5032,2713 4960,2703 4890,2703 4818,2699 4748,2699 4677,2699 4606,2699 4536,2703 4465,2708 4398,2713 4328,2722 4257,2732 4185,2741 4119,2755 4049,2765 3983,2780 3911,2798 3845,2817 3780,2836 3714,2855 3648,2874 3586,2897 3520,2927 3459,2949 3397,2977 3336,3006 3274,3034 3217,3067 3161,3100 3104,3139 3047,3171 2996,3209 2943,3247 2892,3289 2839,3332 2791,3374 2745,3422 2698,3469 2655,3517 2613,3563 2575,3615 2537,3667 2503,3724 2466,3781 2437,3837 2410,3895 2381,3955 2358,4017 2339,4078 2320,4140 2306,4206 2296,4267 2286,4333 2282,4399 2278,4466 2278,4532 2282,4598 2291,4664 2301,4726 2314,4792 2329,4853 2348,4919 2371,4981 2395,5037 2424,5099 2452,5155 2485,5212 2522,5269 2556,5321 2599,5373 2637,5425 2679,5472 2726,5519 2769,5566 2820,5609 2868,5651 2919,5694 2972,5732 3023,5771 3081,5807 3137,5845 3193,5878 3251,5911 "
       style="stroke:#000000;stroke-width:8;stroke-linecap:butt;stroke-linejoin:round"
       id="polyline8" />
    <!-- Line -->
    <!--  polyline  -->
    <polyline
       points="2278,4480 2278,4528 2282,4579 2286,4626 2296,4678 2306,4726 2320,4777 2339,4825 2352,4872 2376,4919 2395,4966 2424,5014 2452,5061 2480,5108 2509,5151 2546,5198 2580,5240 2618,5283 2660,5325 2703,5369 2745,5406 2791,5448 2839,5486 2892,5524 2943,5562 2996,5595 3051,5633 3108,5666 3170,5699 3227,5728 3289,5755 3355,5784 3416,5813 3482,5840 3548,5864 3618,5888 3690,5907 3756,5930 3832,5949 3903,5963 3973,5982 4049,5996 4124,6010 4200,6020 4276,6029 4351,6039 4427,6048 4502,6053 4578,6058 4659,6058 4733,6058 4810,6058 4890,6058 4965,6053 5041,6048 5117,6039 5191,6029 5268,6020 5343,6010 5419,5996 5495,5982 5566,5963 5636,5949 5712,5930 5778,5907 5848,5888 5920,5864 5986,5840 6052,5813 6114,5784 6180,5755 6241,5728 6298,5699 6359,5666 6415,5633 6473,5595 6524,5562 6577,5524 6628,5486 6676,5448 6723,5406 6766,5369 6808,5325 6851,5283 6888,5240 6921,5198 6959,5151 6987,5108 7016,5061 7043,5014 7072,4966 7091,4919 7114,4872 7128,4825 7148,4777 7163,4726 7171,4678 7181,4626 7186,4579 7191,4480 "
       style="stroke:#000000;stroke-width:8;stroke-linecap:butt;stroke-linejoin:round"
       id="polyline10" />
    <!-- Line -->
    <!--  polyline  -->
    <polyline
       points="2650,3521 2618,3563 2584,3606 2552,3648 2522,3696 2495,3738 2471,3785 2452,3834 2429,3880 2414,3922 2395,3970 2386,4017 2371,4065 2363,4116 2358,4163 2352,4212 2352,4258 2352,4305 2358,4352 2363,4404 2371,4451 2381,4499 2395,4546 2410,4593 2429,4640 2448,4683 2466,4730 2490,4777 2518,4820 2546,4867 2575,4910 2607,4952 2645,4995 2679,5037 2722,5080 2759,5118 2802,5160 2849,5198 2896,5236 2943,5269 2996,5307 3047,5340 3100,5373 3155,5406 3212,5439 3270,5467 3331,5500 3387,5524 3454,5552 3514,5576 3581,5599 3648,5623 3714,5647 3780,5666 3850,5685 3922,5699 3991,5718 4062,5732 4134,5746 4209,5755 4281,5765 4355,5774 4427,5779 4502,5784 4578,5788 4654,5793 4725,5793 4799,5793 4875,5788 4952,5788 5026,5784 5098,5774 5173,5765 5244,5755 5319,5746 5391,5732 5462,5718 5532,5703 5603,5689 5674,5670 5739,5651 5806,5628 5872,5604 5939,5581 6005,5558 6066,5533 6128,5505 6188,5477 6245,5444 6303,5415 6359,5382 6411,5349 6462,5316 6515,5278 6562,5240 6609,5203 6657,5165 6699,5127 6742,5085 6780,5047 6817,5004 6851,4962 6883,4919 6917,4877 6944,4829 6974,4787 6997,4740 7016,4692 7040,4650 7054,4603 7072,4555 7082,4508 7096,4461 7106,4414 7109,4362 7114,4314 7114,4267 7114,4220 7109,4173 7106,4127 7096,4073 7086,4026 7072,3980 7059,3932 7040,3885 7021,3842 7001,3795 6978,3749 6950,3706 6921,3658 6893,3615 6859,3573 6817,3521 "
       style="stroke:#000000;stroke-width:8;stroke-linecap:butt;stroke-linejoin:round"
       id="polyline12" />
    <!-- Line -->
    <!--  polyline  -->
    <polyline
       points="3520,4976 3567,4999 3614,5023 3661,5047 3709,5066 3760,5085 3813,5108 3864,5122 3917,5141 3973,5155 4026,5170 4081,5184 4138,5198 4196,5207 4251,5223 4308,5231 4366,5236 4427,5245 4483,5250 4544,5255 4601,5259 4663,5259 4720,5259 4781,5259 4837,5259 4899,5255 4956,5250 5018,5245 5074,5240 5135,5231 5191,5226 5249,5212 5306,5203 5362,5193 5419,5180 5470,5165 5528,5146 5580,5132 5632,5113 5683,5095 5736,5076 5787,5056 5835,5034 5882,5009 5928,4985 5971,4962 6018,4938 6061,4910 6103,4881 6141,4853 6180,4825 6218,4796 6255,4768 6287,4735 6322,4702 6354,4669 6383,4640 6411,4603 6439,4571 6462,4537 6487,4499 6506,4466 6529,4428 6543,4395 6562,4358 6577,4319 6585,4281 6600,4244 6604,4206 6614,4169 6619,4130 6623,4092 6623,4055 6623,4017 6619,3980 6614,3941 6609,3903 6604,3866 6591,3828 6580,3791 6566,3752 6553,3714 6534,3677 6515,3644 6496,3606 6473,3573 6449,3535 6425,3502 6396,3469 6369,3436 6335,3403 6303,3371 6269,3337 6237,3308 6199,3280 6160,3247 6117,3218 6080,3195 6037,3166 5995,3139 5948,3116 5901,3091 5854,3067 5806,3044 5759,3025 5707,3006 5654,2987 5603,2969 5551,2949 5495,2935 5443,2921 5385,2907 5329,2892 5273,2883 5215,2869 5159,2865 5103,2855 5041,2845 4984,2840 4922,2836 4866,2836 4805,2831 4748,2831 4686,2831 4629,2831 4569,2836 4512,2840 4451,2845 4393,2850 4332,2859 4276,2869 4219,2878 4162,2888 4106,2902 4049,2911 3996,2927 3941,2944 3888,2959 3837,2977 3784,2996 3733,3015 3680,3034 3633,3058 3586,3081 3539,3105 3496,3129 3448,3152 3406,3181 3363,3209 3325,3237 3289,3266 3251,3294 3212,3322 3180,3355 3147,3388 3113,3422 3085,3455 3057,3488 3028,3521 3004,3554 2980,3592 2962,3625 2938,3662 2924,3700 2906,3733 2892,3771 2881,3809 2868,3847 2862,3885 2854,3922 2849,3960 2844,3998 2844,4036 2844,4073 2849,4111 2854,4149 2858,4192 2862,4229 2877,4262 2887,4300 2900,4339 2915,4376 2934,4414 2953,4447 2972,4486 2996,4522 3019,4555 3043,4588 3070,4622 3100,4655 3132,4688 3166,4721 3198,4754 3232,4782 3270,4815 3307,4844 3350,4872 3387,4900 3429,4924 3472,4952 3520,4976 "
       style="stroke:#000000;stroke-width:8;stroke-linecap:butt;stroke-linejoin:round"
       id="polyline14" />
    <!-- Line -->
    <!--  polyline  -->
    <polyline
       points="3699,4896 3741,4914 3780,4933 3822,4952 3864,4971 3907,4991 3949,5004 3996,5018 4039,5034 4087,5047 4134,5061 4180,5070 4228,5085 4276,5095 4323,5103 4374,5108 4422,5118 4470,5122 4521,5127 4574,5132 4621,5132 4672,5138 4725,5138 4771,5138 4824,5138 4875,5132 4922,5127 4975,5122 5022,5118 5074,5113 5122,5103 5173,5099 5220,5089 5268,5080 5315,5066 5362,5056 5409,5042 5451,5028 5500,5014 5542,4995 5585,4981 5627,4962 5670,4943 5712,4924 5750,4906 5787,4881 5825,4862 5863,4839 5896,4815 5928,4792 5963,4768 5995,4744 6029,4717 6056,4688 6085,4664 6109,4636 6137,4607 6160,4579 6184,4551 6202,4522 6222,4489 6241,4461 6260,4428 6274,4399 6287,4366 6298,4339 6311,4305 6317,4272 6326,4239 6330,4206 6335,4177 6340,4144 6340,4111 6340,4078 6335,4045 6335,4012 6330,3984 6322,3951 6311,3918 6303,3885 6292,3856 6279,3823 6264,3791 6250,3762 6232,3729 6213,3700 6194,3672 6170,3644 6146,3611 6122,3582 6095,3560 6071,3530 6037,3502 6010,3478 5976,3450 5948,3426 5910,3403 5877,3379 5840,3355 5806,3332 5769,3313 5725,3294 5688,3270 5646,3251 5603,3237 5561,3218 5518,3204 5470,3185 5428,3171 5380,3158 5334,3148 5287,3133 5239,3124 5191,3116 5145,3105 5092,3097 5045,3091 4999,3086 4946,3081 4895,3077 4848,3072 4795,3072 4744,3072 4696,3072 4643,3072 4592,3077 4544,3077 4493,3081 4446,3086 4393,3097 4347,3100 4295,3110 4247,3119 4200,3129 4153,3143 4106,3152 4058,3166 4015,3181 3969,3195 3926,3214 3884,3228 3841,3247 3799,3266 3756,3286 3717,3303 3680,3322 3643,3346 3605,3371 3571,3393 3539,3417 3506,3440 3472,3464 3440,3492 3411,3517 3382,3544 3359,3573 3331,3602 3307,3629 3283,3658 3265,3686 3246,3719 3227,3749 3208,3776 3193,3809 3180,3842 3170,3870 3155,3903 3151,3938 3142,3965 3137,3998 3132,4031 3128,4065 3128,4097 3128,4130 3132,4163 3132,4192 3137,4225 3147,4258 3155,4291 3166,4324 3174,4352 3189,4385 3204,4414 3217,4447 3236,4475 3254,4508 3274,4537 3297,4565 3321,4593 3344,4622 3374,4650 3397,4678 3429,4707 3459,4730 3491,4760 3520,4782 3558,4806 3591,4829 3629,4853 3661,4872 3699,4896 "
       style="stroke:#000000;stroke-width:8;stroke-linecap:butt;stroke-linejoin:round"
       id="polyline16" />
    <!-- Line -->
    <!--  polyline  -->
    <polyline
       points="5958,4697 5976,4674 5999,4650 6013,4622 6033,4598 6048,4571 6061,4541 6075,4518 6090,4489 6098,4461 6109,4433 6114,4404 6122,4376 6128,4352 6128,4324 6133,4297 6133,4267 6133,4239 6133,4212 6128,4182 6122,4154 6117,4127 6109,4097 6098,4069 6090,4040 6080,4017 6066,3988 6052,3960 6037,3938 6018,3908 5999,3885 5981,3856 5963,3834 5939,3809 5914,3785 5891,3762 5867,3738 5843,3714 5816,3691 5787,3672 5755,3648 5725,3629 5693,3611 5659,3592 5627,3573 5593,3554 5561,3535 5523,3521 5485,3507 5451,3492 5409,3478 5372,3464 5334,3450 5292,3440 5254,3426 5211,3417 5169,3407 5126,3398 5087,3393 5041,3384 4999,3379 4956,3374 4914,3371 4871,3371 4829,3365 4781,3365 4739,3365 4696,3365 4648,3365 4606,3371 4563,3371 4521,3374 4474,3379 4432,3384 4389,3393 4347,3398 4304,3407 4265,3417 4223,3426 4180,3436 4143,3450 4100,3459 4062,3475 4026,3488 3988,3502 3949,3517 3917,3535 3879,3549 3845,3568 3813,3587 3780,3606 3746,3625 3717,3644 3690,3667 3656,3686 3633,3710 3605,3733 3581,3757 3558,3781 3533,3804 3510,3828 3491,3851 3467,3876 3454,3903 3435,3927 3421,3955 3406,3984 3392,4007 3378,4036 3369,4065 3359,4092 3355,4121 3344,4149 3340,4177 3340,4206 3336,4229 3336,4258 3336,4286 3336,4314 3340,4343 3344,4371 3350,4399 3359,4428 3369,4456 3378,4486 3387,4513 3401,4537 3416,4565 3429,4593 3448,4617 3467,4645 3486,4669 3510,4697 "
       style="stroke:#000000;stroke-width:8;stroke-linecap:butt;stroke-linejoin:round"
       id="polyline18" />
    <!-- Line -->
    <!--  polyline  -->
    <polyline
       points="6056,4480 6056,4451 6052,4428 6052,4399 6048,4371 6043,4348 6033,4319 6024,4297 6013,4267 6005,4244 5991,4215 5976,4192 5963,4169 5948,4144 5928,4116 5910,4092 5891,4069 5872,4045 5848,4026 5829,4003 5806,3980 5778,3960 5755,3938 5725,3918 5697,3899 5670,3880 5640,3861 5608,3842 5574,3823 5547,3809 5513,3791 5476,3776 5443,3762 5409,3749 5372,3733 5334,3724 5296,3710 5258,3700 5220,3691 5183,3681 5145,3672 5103,3662 5064,3658 5022,3648 4980,3644 4941,3639 4899,3634 4856,3634 4818,3629 4776,3629 4733,3629 4691,3629 4648,3629 4611,3634 4569,3634 4525,3639 4488,3644 4446,3648 4403,3658 4366,3662 4323,3672 4285,3681 4247,3691 4209,3700 4172,3710 4134,3724 4096,3733 4058,3749 4026,3762 3991,3776 3954,3791 3922,3809 3892,3823 3860,3842 3826,3861 3799,3880 3770,3899 3741,3918 3714,3938 3690,3960 3661,3980 3637,4003 3618,4026 3595,4045 3576,4069 3558,4092 3539,4116 3520,4144 3506,4169 3491,4192 3477,4215 3463,4244 3454,4267 3443,4297 3435,4319 3425,4348 3421,4371 3416,4399 3416,4428 3411,4451 3411,4480 "
       style="stroke:#000000;stroke-width:8;stroke-linecap:butt;stroke-linejoin:round"
       id="polyline20" />
    <!-- Line -->
    <!--  polyline  -->
    <polyline
       points="5958,4262 5933,4239 5910,4212 5886,4192 5863,4169 5835,4144 5811,4121 5778,4102 5750,4078 5721,4059 5688,4040 5654,4023 5622,4003 5589,3984 5551,3970 5518,3951 5481,3938 5443,3922 5404,3908 5366,3895 5324,3885 5287,3870 5244,3861 5202,3851 5164,3842 5122,3834 5079,3823 5037,3818 4994,3814 4946,3809 4903,3804 4861,3800 4818,3800 4771,3800 4728,3800 4686,3800 4640,3800 4597,3804 4555,3804 4512,3809 4470,3814 4427,3818 4380,3828 4342,3834 4300,3842 4257,3851 4215,3861 4177,3876 4134,3885 4096,3899 4058,3908 4015,3922 3983,3941 3945,3955 3907,3970 3874,3988 3841,4007 3807,4026 3775,4045 3741,4065 3714,4083 3680,4107 3652,4127 3624,4149 3599,4173 3576,4192 3552,4215 3510,4262 "
       style="stroke:#000000;stroke-width:8;stroke-linecap:butt;stroke-linejoin:round"
       id="polyline22" />
    <!-- Line -->
    <!--  polyline  -->
    <polyline
       points="2650,5439 2688,5481 2726,5519 2769,5562 2811,5599 2858,5637 2906,5675 2953,5713 3004,5746 3057,5784 3108,5817 3166,5850 3222,5878 3278,5911 3340,5940 3401,5963 3463,5992 3529,6015 3595,6039 3661,6062 3728,6081 3794,6106 3864,6119 3935,6138 4007,6152 4076,6166 4148,6181 4223,6191 4295,6199 4370,6209 4440,6214 4517,6223 4592,6223 4667,6228 4744,6228 4814,6228 4890,6223 4965,6218 5041,6214 5111,6209 5188,6199 5258,6191 5334,6176 5404,6166 5476,6152 5547,6133 5617,6119 5688,6100 5755,6081 5821,6058 5886,6034 5952,6010 6013,5987 6080,5960 6137,5930 6199,5902 6255,5874 6311,5840 6369,5807 6420,5774 6473,5741 6524,5703 6572,5670 6619,5633 6665,5595 6708,5552 6747,5514 6817,5439 "
       style="stroke:#000000;stroke-width:8;stroke-linecap:butt;stroke-linejoin:round"
       id="polyline24" />
    <!-- Line -->
    <!--  polyline  -->
    <polyline
       points="3251,5911 3240,5907 3236,5902 3227,5892 3222,5888 3212,5883 3208,5874 3204,5869 3198,5859 3193,5855 3189,5845 3185,5836 3180,5826 3174,5817 3170,5807 3170,5793 3166,5784 3161,5774 3161,5760 3161,5751 3155,5737 3155,5722 3155,5708 3155,5699 3155,5685 3155,5670 3155,5656 3155,5643 3161,5628 3161,5614 3161,5595 3166,5581 3166,5566 3170,5552 3174,5533 3180,5519 3185,5505 3189,5486 3193,5472 3198,5454 3204,5439 3208,5420 3212,5406 3222,5392 3227,5373 3236,5359 3240,5340 3251,5325 3254,5311 3265,5292 3274,5278 3283,5265 3293,5245 3297,5231 3307,5217 3317,5203 3325,5188 3340,5174 3350,5160 3359,5146 3369,5132 3378,5118 3392,5103 3401,5089 3411,5080 3421,5066 3435,5051 3443,5042 3454,5034 3467,5018 3477,5009 3491,4999 3501,4991 3514,4981 3525,4971 3533,4962 3548,4957 3558,4949 3571,4943 3581,4933 3591,4929 3605,4924 3614,4919 3624,4914 3637,4910 3648,4906 3656,4900 3671,4900 3680,4896 3690,4896 3699,4896 3709,4896 3717,4896 3728,4896 3737,4896 3746,4896 3756,4900 3765,4900 3770,4906 3788,4910 "
       style="stroke:#000000;stroke-width:8;stroke-linecap:butt;stroke-linejoin:round"
       id="polyline26" />
    <!-- Line -->
    <!--  polyline  -->
    <polyline
       points="4342,6237 4337,6237 4332,6234 4328,6228 4328,6223 4328,6218 4323,6214 4323,6209 4318,6204 4318,6195 4318,6191 4318,6181 4313,6176 4313,6166 4313,6157 4313,6149 4308,6138 4308,6129 4308,6114 4308,6106 4308,6091 4308,6081 4308,6067 4308,6058 4308,6044 4308,6029 4308,6015 4308,6002 4308,5987 4308,5973 4308,5954 4308,5940 4308,5925 4308,5907 4313,5892 4313,5874 4313,5859 4313,5840 4318,5826 4318,5807 4318,5788 4318,5774 4323,5755 4323,5737 4323,5722 4328,5703 4328,5685 4332,5666 4332,5651 4337,5633 4337,5614 4337,5595 4342,5581 4342,5562 4347,5543 4351,5529 4351,5510 4355,5497 4355,5477 4361,5462 4361,5444 4366,5429 4370,5412 4370,5396 4374,5382 4374,5369 4380,5354 4385,5340 4385,5325 4389,5311 4393,5297 4393,5283 4398,5273 4403,5259 4403,5250 4408,5236 4408,5226 4412,5217 4417,5207 4417,5198 4422,5188 4427,5180 4427,5170 4432,5165 4436,5155 4436,5151 4440,5141 4440,5138 4446,5132 4451,5127 4451,5122 4454,5122 4454,5118 4459,5118 4465,5113 4470,5113 "
       style="stroke:#000000;stroke-width:8;stroke-linecap:butt;stroke-linejoin:round"
       id="polyline28" />
    <!-- Line -->
    <!--  polyline  -->
    <polyline
       points="5508,6171 5513,6171 5518,6171 5523,6166 5528,6166 5532,6162 5532,6157 5537,6152 5542,6149 5547,6143 5547,6138 5551,6129 5551,6124 5555,6114 5561,6106 5561,6096 5566,6091 5566,6081 5566,6067 5570,6058 5570,6048 5570,6039 5570,6025 5574,6015 5574,6002 5574,5987 5574,5973 5574,5963 5574,5949 5574,5935 5574,5917 5570,5902 5570,5888 5570,5874 5570,5859 5566,5840 5566,5826 5566,5807 5561,5793 5561,5774 5555,5760 5555,5741 5551,5728 5551,5708 5547,5689 5542,5675 5542,5656 5537,5637 5532,5623 5528,5604 5523,5585 5523,5571 5518,5552 5513,5533 5508,5519 5504,5500 5500,5486 5495,5467 5489,5454 5485,5434 5476,5420 5470,5401 5465,5387 5462,5373 5457,5354 5451,5340 5443,5325 5438,5311 5433,5297 5428,5283 5423,5269 5414,5255 5409,5245 5404,5231 5396,5217 5391,5207 5385,5198 5380,5184 5372,5174 5366,5165 5362,5155 5353,5146 5348,5138 5343,5127 5338,5122 5329,5113 5324,5108 5319,5103 5315,5095 5306,5089 5300,5085 5296,5080 5292,5080 5287,5076 5281,5070 5276,5070 5273,5070 5262,5070 5258,5070 5249,5070 "
       style="stroke:#000000;stroke-width:16;stroke-linecap:butt;stroke-linejoin:round"
       id="polyline30" />
    <!-- Line -->
    <!--  polyline  -->
    <polyline
       points="6524,5713 6534,5703 6543,5699 6548,5689 6558,5680 6562,5675 6572,5666 6577,5656 6580,5647 6585,5637 6591,5628 6596,5614 6600,5604 6604,5595 6604,5581 6609,5571 6609,5558 6614,5543 6614,5533 6614,5519 6614,5505 6614,5491 6614,5477 6614,5462 6614,5448 6614,5434 6609,5420 6609,5406 6604,5392 6600,5377 6600,5363 6596,5344 6591,5330 6585,5316 6580,5302 6572,5283 6566,5269 6562,5255 6553,5240 6548,5223 6538,5207 6529,5193 6524,5174 6515,5160 6506,5146 6496,5132 6487,5118 6476,5103 6468,5089 6458,5070 6444,5056 6434,5042 6425,5034 6411,5018 6402,5004 6388,4991 6377,4976 6364,4966 6349,4952 6340,4943 6326,4929 6311,4919 6303,4906 6287,4896 6274,4886 6260,4877 6245,4867 6232,4858 6222,4848 6207,4839 6194,4834 6180,4825 6165,4820 6152,4811 6137,4806 6122,4802 6109,4796 6098,4787 6085,4787 6071,4782 6056,4777 6043,4773 6033,4773 6018,4768 6005,4768 5995,4768 5981,4768 5971,4768 5958,4768 5948,4768 5933,4768 5925,4773 5914,4773 5901,4777 5891,4782 5882,4782 5872,4787 5863,4792 5854,4802 5843,4806 5835,4811 "
       style="stroke:#000000;stroke-width:8;stroke-linecap:butt;stroke-linejoin:round"
       id="polyline32" />
    <!-- Line -->
    <!--  polyline  -->
    <polyline
       points="7144,4839 7144,4829 7148,4815 7148,4802 7152,4787 7152,4773 7152,4760 7152,4749 7152,4735 7152,4721 7148,4707 7148,4692 7144,4678 7144,4664 7139,4650 7133,4636 7128,4622 7125,4613 7114,4598 7109,4584 7106,4571 7096,4555 7086,4541 7082,4532 7072,4518 7063,4503 7054,4494 7040,4480 7029,4470 7021,4456 7006,4447 6997,4433 6982,4423 6969,4414 6959,4399 6944,4390 6931,4381 6917,4371 6902,4362 6888,4352 6870,4343 6854,4339 6840,4329 6827,4319 6808,4314 6793,4305 6774,4300 6761,4297 6742,4291 6723,4281 6708,4277 6689,4272 6676,4272 6657,4267 6638,4262 6619,4258 6604,4258 6585,4258 6566,4254 6553,4254 6534,4254 6515,4254 6500,4254 6481,4254 6462,4254 6449,4254 6430,4258 6415,4258 6396,4262 6383,4267 6364,4267 6349,4272 6335,4277 6317,4281 6303,4286 6287,4291 6274,4300 6260,4305 6245,4314 6232,4319 6218,4329 6207,4333 6194,4343 6184,4352 6170,4362 6160,4371 6146,4381 6137,4390 6128,4399 6117,4409 6109,4418 6098,4433 6095,4443 6085,4456 6080,4466 6071,4480 6066,4489 6061,4503 6056,4513 6048,4541 "
       style="stroke:#000000;stroke-width:8;stroke-linecap:butt;stroke-linejoin:round"
       id="polyline34" />
    <!-- Line -->
    <!--  polyline  -->
    <polyline
       points="7001,3785 6997,3776 6987,3762 6982,3752 6974,3743 6963,3733 6955,3724 6944,3714 6936,3706 6925,3696 6917,3691 6907,3681 6893,3672 6883,3667 6870,3662 6859,3653 6846,3648 6832,3644 6817,3639 6803,3634 6789,3629 6774,3625 6761,3625 6747,3620 6732,3620 6718,3615 6699,3615 6685,3615 6670,3611 6651,3611 6638,3611 6619,3615 6604,3615 6585,3615 6572,3620 6553,3620 6538,3625 6519,3629 6506,3629 6487,3634 6473,3639 6454,3644 6439,3653 6420,3658 6407,3662 6388,3672 6373,3677 6354,3686 6340,3691 6326,3700 6307,3710 6292,3719 6279,3729 6264,3738 6250,3749 6237,3757 6222,3766 6207,3781 6194,3791 6180,3800 6165,3814 6152,3823 6141,3837 6128,3851 6117,3861 6109,3876 6095,3889 6085,3899 6075,3913 6066,3927 6056,3941 6048,3955 6043,3970 6033,3984 6024,3998 6018,4012 6013,4026 6005,4040 5999,4055 5995,4069 5991,4083 5991,4097 5986,4111 5981,4127 5981,4140 5981,4154 5976,4169 5976,4177 5976,4192 5976,4206 5976,4220 5981,4234 5981,4248 5986,4258 5986,4272 5991,4286 5995,4297 5999,4310 6005,4319 6010,4333 6013,4343 "
       style="stroke:#000000;stroke-width:8;stroke-linecap:butt;stroke-linejoin:round"
       id="polyline36" />
    <!-- Line -->
    <!--  polyline  -->
    <polyline
       points="6218,3048 6207,3048 6202,3044 6194,3039 6184,3039 6175,3034 6165,3034 6156,3034 6146,3034 6137,3034 6128,3034 6117,3034 6109,3039 6098,3039 6090,3044 6075,3044 6066,3048 6056,3054 6043,3058 6033,3062 6024,3067 6010,3072 5999,3081 5986,3086 5976,3097 5967,3105 5952,3110 5944,3119 5928,3129 5920,3139 5910,3148 5896,3158 5886,3171 5872,3181 5863,3195 5854,3204 5840,3218 5829,3228 5821,3243 5806,3256 5797,3270 5787,3286 5778,3299 5769,3313 5759,3328 5750,3341 5739,3355 5731,3371 5721,3384 5712,3403 5702,3417 5693,3432 5688,3450 5678,3464 5670,3478 5665,3497 5654,3511 5651,3530 5646,3544 5636,3563 5632,3577 5627,3592 5622,3611 5617,3625 5612,3644 5608,3658 5603,3672 5598,3691 5598,3706 5593,3719 5593,3733 5589,3752 5589,3766 5585,3781 5585,3795 5585,3809 5585,3823 5585,3837 5585,3851 5585,3861 5585,3876 5589,3889 5589,3899 5593,3913 5593,3922 5598,3932 5598,3946 5603,3955 5608,3965 5612,3974 5617,3984 5622,3993 5627,3998 5632,4007 5636,4017 5646,4023 5651,4026 5659,4036 5665,4040 5678,4050 "
       style="stroke:#000000;stroke-width:8;stroke-linecap:butt;stroke-linejoin:round"
       id="polyline38" />
    <!-- Line -->
    <!--  polyline  -->
    <polyline
       points="5126,2722 5122,2722 5117,2722 5111,2727 5107,2732 5107,2738 5103,2741 5098,2746 5098,2751 5092,2755 5092,2765 5087,2770 5084,2780 5084,2784 5079,2793 5074,2803 5074,2812 5069,2823 5064,2831 5064,2845 5060,2855 5055,2869 5055,2878 5050,2892 5045,2907 5045,2916 5041,2930 5041,2944 5037,2959 5032,2973 5032,2992 5026,3006 5022,3020 5022,3034 5018,3054 5018,3067 5013,3086 5013,3100 5007,3119 5002,3133 5002,3152 4999,3171 4999,3185 4994,3204 4994,3223 4988,3243 4988,3256 4988,3275 4984,3294 4984,3308 4980,3328 4980,3346 4980,3365 4975,3379 4975,3398 4975,3417 4970,3432 4970,3450 4970,3464 4970,3483 4970,3497 4965,3517 4965,3530 4965,3549 4965,3563 4965,3577 4965,3592 4965,3606 4965,3620 4965,3634 4965,3648 4965,3662 4965,3677 4965,3686 4965,3700 4965,3714 4965,3724 4965,3733 4965,3743 4970,3757 4970,3766 4970,3771 4970,3781 4970,3791 4975,3800 4975,3804 4975,3809 4980,3818 4980,3823 4980,3828 4984,3834 4984,3837 4988,3837 4988,3842 4994,3842 4994,3847 4999,3847 "
       style="stroke:#000000;stroke-width:8;stroke-linecap:butt;stroke-linejoin:round"
       id="polyline40" />
    <!-- Line -->
    <!--  polyline  -->
    <polyline
       points="3959,2789 3964,2784 3969,2784 3973,2784 3977,2789 3983,2789 3988,2789 3991,2793 3996,2793 4002,2798 4011,2803 4015,2807 4020,2812 4026,2817 4030,2826 4039,2831 4044,2840 4049,2845 4058,2855 4062,2865 4068,2874 4073,2883 4081,2892 4087,2902 4092,2911 4100,2927 4106,2935 4111,2949 4115,2959 4124,2973 4129,2987 4134,3001 4138,3015 4148,3029 4153,3044 4158,3058 4162,3072 4166,3086 4177,3105 4180,3119 4185,3133 4191,3152 4196,3166 4200,3185 4204,3201 4209,3218 4215,3237 4219,3251 4223,3270 4228,3289 4233,3303 4238,3322 4238,3341 4243,3355 4247,3374 4251,3393 4251,3407 4257,3426 4262,3445 4262,3459 4265,3478 4265,3492 4270,3511 4270,3526 4276,3544 4276,3560 4276,3573 4276,3592 4281,3606 4281,3620 4281,3634 4281,3648 4281,3662 4281,3677 4281,3691 4281,3706 4281,3719 4281,3729 4281,3743 4281,3752 4276,3766 4276,3776 4276,3785 4270,3795 4270,3804 4265,3814 4265,3823 4262,3834 4262,3837 4257,3847 4257,3851 4251,3861 4247,3866 4247,3870 4243,3876 4238,3880 4233,3880 4228,3885 4223,3889 4219,3889 "
       style="stroke:#000000;stroke-width:8;stroke-linecap:butt;stroke-linejoin:round"
       id="polyline42" />
    <!-- Line -->
    <!--  polyline  -->
    <polyline
       points="2943,3247 2948,3243 2958,3237 2966,3233 2977,3228 2985,3223 2996,3218 3009,3214 3019,3214 3028,3209 3038,3209 3051,3209 3062,3204 3076,3204 3085,3204 3100,3204 3113,3209 3123,3209 3137,3209 3151,3214 3161,3214 3174,3218 3189,3223 3204,3228 3217,3233 3232,3237 3240,3243 3254,3251 3270,3256 3283,3266 3297,3270 3312,3280 3325,3289 3340,3294 3350,3303 3363,3313 3378,3322 3392,3337 3406,3346 3416,3355 3429,3371 3443,3379 3459,3393 3467,3403 3482,3417 3491,3432 3506,3440 3514,3455 3529,3469 3539,3483 3548,3497 3563,3511 3571,3526 3581,3540 3591,3554 3599,3568 3610,3587 3618,3602 3629,3615 3637,3629 3643,3644 3652,3662 3656,3677 3666,3691 3671,3710 3680,3724 3685,3738 3690,3752 3695,3771 3699,3785 3703,3800 3703,3814 3709,3828 3714,3847 3714,3861 3717,3876 3717,3889 3717,3903 3717,3918 3722,3932 3717,3946 3717,3955 3717,3970 3717,3984 3714,3998 3714,4007 3709,4023 3709,4031 3703,4045 3699,4055 3695,4065 3690,4073 3685,4083 3680,4092 3675,4102 3666,4111 3661,4121 3652,4130 3648,4135 3637,4144 3633,4149 "
       style="stroke:#000000;stroke-width:8;stroke-linecap:butt;stroke-linejoin:round"
       id="polyline44" />
    <!-- Line -->
    <!--  polyline  -->
    <polyline
       points="2325,4121 2329,4107 2333,4092 2339,4083 2344,4069 2352,4055 2358,4045 2363,4031 2371,4023 2381,4012 2386,3998 2395,3988 2405,3980 2414,3970 2429,3955 2437,3946 2448,3938 2461,3932 2471,3922 2485,3913 2499,3903 2509,3899 2522,3889 2537,3885 2552,3876 2565,3870 2580,3866 2599,3861 2613,3856 2626,3851 2641,3847 2660,3842 2674,3842 2692,3837 2707,3837 2726,3834 2741,3834 2759,3834 2777,3828 2791,3828 2811,3834 2830,3834 2844,3834 2862,3834 2881,3837 2900,3837 2915,3842 2934,3842 2953,3847 2966,3851 2985,3856 3004,3861 3019,3866 3038,3870 3051,3880 3070,3885 3085,3895 3104,3899 3118,3908 3132,3913 3151,3922 3166,3932 3180,3941 3193,3951 3208,3960 3222,3970 3236,3980 3251,3988 3259,4003 3274,4012 3283,4023 3297,4036 3307,4045 3321,4059 3331,4069 3340,4083 3350,4097 3359,4107 3369,4121 3374,4135 3382,4149 3387,4163 3397,4173 3401,4187 3406,4201 3411,4215 3416,4229 3421,4244 3421,4258 3425,4272 3429,4286 3429,4297 3429,4310 3429,4324 3429,4339 3429,4352 3429,4366 3429,4381 3425,4395 3421,4404 3421,4418 "
       style="stroke:#000000;stroke-width:8;stroke-linecap:butt;stroke-linejoin:round"
       id="polyline46" />
    <!-- Line -->
    <!--  polyline  -->
    <polyline
       points="2466,5174 2456,5165 2452,5151 2448,5141 2443,5127 2437,5118 2437,5103 2433,5089 2429,5080 2429,5066 2429,5051 2424,5037 2424,5023 2424,5009 2429,4995 2429,4981 2429,4971 2433,4957 2433,4943 2437,4929 2443,4914 2448,4900 2452,4886 2456,4872 2461,4858 2466,4844 2475,4829 2480,4815 2490,4802 2495,4787 2503,4773 2514,4760 2522,4744 2533,4730 2546,4721 2556,4707 2565,4692 2580,4678 2588,4669 2603,4655 2613,4645 2626,4632 2641,4622 2655,4607 2669,4598 2684,4588 2698,4579 2711,4571 2726,4560 2741,4551 2759,4541 2773,4532 2788,4522 2807,4518 2820,4508 2834,4499 2854,4494 2868,4489 2887,4480 2900,4475 2919,4470 2934,4466 2953,4461 2972,4456 2985,4456 3004,4451 3019,4451 3038,4447 3051,4447 3070,4447 3085,4443 3100,4443 3118,4443 3132,4443 3151,4447 3166,4447 3180,4447 3193,4451 3208,4451 3227,4456 3240,4461 3254,4466 3265,4470 3278,4475 3293,4480 3307,4486 3317,4489 3331,4499 3344,4503 3355,4513 3363,4518 3378,4528 3387,4537 3397,4546 3406,4555 3416,4565 3421,4574 3429,4584 3440,4593 3443,4603 3454,4617 "
       style="stroke:#000000;stroke-width:8;stroke-linecap:butt;stroke-linejoin:round"
       id="polyline48" />
    <!-- Line -->
    <!--  spline  -->
    <polyline
       points="4771,4480 4771,4479 4771,4476 4770,4472 4770,4469 4770,4468 4769,4467 4769,4465 4767,4461 4765,4458 4762,4455 4761,4454 4760,4453 4759,4452 4755,4449 4752,4447 4751,4446 4749,4445 4746,4444 4742,4443 4739,4443 4735,4443 4733,4443 4732,4443 4730,4443 4725,4444 4723,4444 4722,4444 4720,4445 4718,4445 4714,4447 4711,4449 4708,4452 4707,4453 4707,4454 4706,4455 4704,4458 4702,4461 4701,4462 4700,4462 4700,4465 4698,4468 4697,4472 4696,4475 4696,4478 4696,4480 4696,4481 4697,4483 4697,4489 4698,4491 4698,4492 4699,4494 4700,4496 4702,4499 4704,4502 4706,4506 4707,4507 4708,4508 4711,4510 4714,4512 4716,4513 4717,4514 4718,4514 4722,4516 4726,4517 4729,4518 4731,4518 4733,4518 4734,4518 4738,4517 4742,4517 4745,4516 4746,4516 4747,4515 4749,4514 4752,4512 4755,4510 4759,4508 4760,4507 4761,4507 4762,4506 4765,4502 4767,4499 4768,4498 4768,4497 4769,4496 4770,4492 4771,4488 4771,4485 4771,4482 4771,4480 "
       style="stroke:#000000;stroke-width:8;stroke-linecap:butt;stroke-linejoin:bevel"
       id="polyline50" />
    <!-- Line -->
    <!--  polyline  -->
    <polyline
       points="5311,3714 5414,3724 5508,3733 5603,3749 5688,3766 5774,3791 5848,3818 5925,3851 5991,3885 6052,3922 6109,3965 6156,4012 6199,4059 6232,4111 6260,4169 6284,4225 6298,4281 6307,4343 6307,4409 6298,4470 6284,4537 6260,4607 6232,4674 6199,4744 6156,4811 6109,4881 6052,4949 5991,5018 5925,5085 5848,5151 5774,5212 5688,5278 5603,5340 5508,5396 5414,5454 5311,5510 5211,5562 5103,5609 4994,5651 4885,5694 4771,5732 4659,5771 4544,5798 4427,5826 4313,5850 4200,5869 4092,5883 3977,5892 3869,5902 3765,5902 3661,5902 3558,5892 3463,5883 3369,5869 3283,5850 3198,5826 3123,5798 3047,5765 2980,5732 2919,5689 2862,5647 2815,5604 "
       style="stroke:#00cc00;stroke-width:32;stroke-linecap:butt;stroke-linejoin:round"
       id="polyline52" />
    <!-- Line -->
    <!--  polyline  -->
    <polyline
       points="2773,5552 2741,5505 2711,5448 2688,5392 2674,5330 2669,5269 2669,5207 2674,5141 2688,5076 2711,5009 2741,4943 2773,4872 2815,4806 2862,4735 2919,4669 2980,4598 3047,4532 3123,4466 3198,4399 3283,4339 3369,4277 3463,4220 3558,4163 3661,4107 "
       style="stroke:#00cc00;stroke-width:16;stroke-linecap:butt;stroke-linejoin:round;stroke-dasharray:83, 83"
       id="polyline54" />
    <!-- Line -->
    <!--  polyline  -->
    <polyline
       points="3765,4055 3869,4007 3977,3960 4092,3918 4200,3880 4313,3847 4427,3814 4544,3791 4659,3766 4771,3749 4885,3733 4994,3719 5103,3714 5211,3714 5311,3714 "
       style="stroke:#00cc00;stroke-width:16;stroke-linecap:butt;stroke-linejoin:round"
       id="polyline56" />
    <!-- Line -->
    <!--  polyline  -->
    <polyline
       points="6978,5122 6925,5160 6870,5198 6808,5231 6742,5265 6665,5292 6585,5321 6500,5344 6411,5363 6311,5382 6213,5396 6114,5406 6005,5415 5896,5425 5782,5425 5670,5425 5555,5420 5438,5415 5319,5406 5202,5392 5084,5373 4970,5354 4852,5335 4739,5311 4625,5283 4517,5250 4408,5223 4304,5184 4204,5146 4111,5108 4020,5070 3930,5028 3850,4981 3775,4938 3703,4891 3643,4844 3586,4792 3533,4744 3491,4692 3454,4645 3425,4593 3401,4546 3387,4494 3378,4447 3378,4399 3382,4348 3397,4305 3421,4258 3448,4215 3482,4173 3525,4135 3576,4092 3633,4059 3695,4026 3765,3993 3837,3965 3917,3938 4002,3913 4096,3895 4191,3876 4289,3861 4389,3847 4497,3842 4606,3834 4720,3834 4833,3834 4946,3837 "
       style="stroke:#cc00cc;stroke-width:32;stroke-linecap:butt;stroke-linejoin:round"
       id="polyline58" />
    <!-- Line -->
    <!--  polyline  -->
    <polyline
       points="5064,3842 5183,3851 5300,3866 5419,3885 5537,3903 5651,3922 5763,3946 5877,3974 5986,4003 6095,4036 6199,4073 6298,4107 6391,4149 6481,4187 6572,4229 6651,4277 6728,4319 6798,4366 6859,4414 6917,4466 6969,4513 7011,4565 7048,4613 7082,4664 7101,4711 7120,4763 7125,4811 7125,4858 "
       style="stroke:#cc00cc;stroke-width:16;stroke-linecap:butt;stroke-linejoin:round;stroke-dasharray:83, 83"
       id="polyline60" />
    <!-- Line -->
    <!--  polyline  -->
    <polyline
       points="7120,4906 7106,4952 7082,4999 7054,5042 7021,5085 6978,5122 "
       style="stroke:#cc00cc;stroke-width:16;stroke-linecap:butt;stroke-linejoin:round"
       id="polyline62" />
    <!-- Line -->
    <!--  polyline  -->
    <polyline
       points="3336,5174 3392,5203 3443,5226 3501,5255 3558,5278 3614,5302 3675,5321 3733,5344 3794,5363 3855,5382 3922,5401 3983,5415 4049,5429 4115,5444 4177,5454 4247,5462 4313,5472 4380,5481 4446,5486 4517,5497 4582,5497 4648,5500 4720,5500 4786,5500 4856,5500 4922,5497 4988,5491 5060,5486 5126,5477 5191,5467 5258,5458 5324,5448 5391,5434 5457,5420 5518,5406 5585,5392 5646,5373 5707,5354 5769,5330 5825,5311 5886,5288 5944,5265 5999,5240 6052,5212 6109,5188 6160,5160 6213,5127 6260,5099 6307,5066 6354,5034 6396,4999 6439,4966 6481,4933 6524,4896 6562,4862 6596,4825 6633,4787 6662,4744 6695,4707 6723,4669 6750,4626 6774,4584 6793,4546 6817,4503 6836,4461 6851,4418 6865,4376 6878,4333 6888,4286 6897,4244 6902,4201 6907,4159 6907,4111 6907,4069 6902,4026 6897,3984 6893,3938 6883,3895 6870,3851 6859,3809 6840,3766 6827,3724 6803,3681 6785,3639 6761,3596 6732,3560 6708,3517 6676,3478 6647,3440 6614,3403 6577,3365 6538,3328 6500,3289 6458,3256 6415,3223 6373,3185 6330,3152 6284,3124 6232,3091 6184,3062 6133,3034 6075,3006 6024,2977 5967,2954 5910,2930 5854,2907 5792,2883 5736,2865 5674,2845 5612,2826 5547,2807 5485,2793 5419,2780 5353,2765 5292,2755 5220,2741 5154,2732 5087,2727 5022,2718 4952,2713 4885,2708 4818,2708 4748,2708 4682,2708 4611,2708 4544,2713 4478,2718 4408,2722 4342,2732 4276,2738 4209,2746 4143,2760 4076,2774 4011,2784 3949,2803 3884,2817 3822,2836 3760,2855 3699,2874 3643,2897 3581,2921 3525,2944 3467,2969 3416,2992 3359,3020 3307,3048 3254,3077 3208,3110 3161,3139 3113,3171 3070,3204 3028,3243 2985,3275 2943,3308 2906,3346 2873,3384 2834,3422 2807,3459 2773,3502 2745,3540 2717,3582 2692,3620 2674,3662 2650,3706 2632,3749 2618,3791 2603,3834 2588,3876 2580,3918 2570,3965 2565,4007 2560,4050 2560,4092 2560,4140 2565,4182 2570,4225 2575,4267 2584,4314 2599,4358 2607,4399 2626,4443 2641,4486 2664,4528 2684,4571 2707,4607 2735,4650 2759,4688 2791,4730 2820,4768 2854,4806 2892,4844 2930,4881 2966,4919 3009,4952 3051,4985 3095,5018 3137,5051 3185,5085 3236,5118 3283,5146 3336,5174 "
       style="stroke:#000000;stroke-width:16;stroke-linecap:butt;stroke-linejoin:round"
       id="polyline64" />
    <!-- Line -->
    <!--  spline  -->
    <polyline
       points="5513,5415 5513,5414 5512,5412 5512,5406 5511,5404 5511,5403 5510,5401 5510,5399 5508,5396 5506,5393 5504,5390 5503,5388 5502,5388 5501,5387 5498,5385 5495,5383 5493,5382 5492,5381 5490,5381 5487,5379 5483,5378 5480,5377 5478,5377 5476,5377 5475,5377 5472,5378 5467,5378 5465,5379 5464,5379 5462,5380 5460,5381 5458,5383 5454,5385 5450,5387 5448,5388 5446,5390 5444,5393 5442,5396 5441,5397 5441,5398 5441,5399 5440,5403 5439,5407 5438,5411 5438,5413 5438,5415 5438,5416 5439,5419 5439,5423 5440,5426 5440,5427 5440,5429 5441,5432 5442,5435 5444,5438 5446,5441 5448,5442 5448,5443 5450,5444 5454,5446 5457,5448 5459,5449 5461,5450 5464,5451 5468,5453 5471,5454 5474,5454 5476,5454 5477,5454 5479,5453 5484,5453 5486,5451 5487,5451 5489,5450 5491,5450 5495,5448 5498,5446 5501,5444 5502,5443 5503,5442 5504,5441 5506,5438 5508,5435 5509,5434 5509,5433 5510,5432 5511,5427 5512,5423 5513,5420 5513,5417 5513,5415 "
       style="fill:#ff0000;stroke:#ff0000;stroke-width:16;stroke-linecap:butt;stroke-linejoin:bevel"
       id="polyline66" />
  </g>
</svg>
